<svg width="260" height="35" viewBox="0 0 260 35" fill="none" xmlns="http://www.w3.org/2000/svg">
<rect width="260" height="35" fill="white"/>
<rect y="31" width="260" height="4" fill="black"/>
<rect x="128" y="3" width="4" height="30" fill="black"/>
<circle cx="41" cy="17.8492" r="8" fill="#6D24B6"/>
<line x1="81.5147" y1="12.1924" x2="92.8284" y2="23.5061" stroke="#6D24B6" stroke-width="4" stroke-linecap="round"/>
<line x1="81.5147" y1="23.5061" x2="92.8284" y2="12.1924" stroke="#6D24B6" stroke-width="4" stroke-linecap="round"/>
<path d="M78.5 17C78.5 18.5816 77.5639 20.1633 75.6993 21.6714C73.839 23.1761 71.1166 24.5533 67.7082 25.7193C60.8963 28.0497 51.4535 29.5 41 29.5C30.5465 29.5 21.1037 28.0497 14.2918 25.7193C10.8834 24.5533 8.16096 23.1761 6.30066 21.6714C4.4361 20.1633 3.5 18.5816 3.5 17C3.5 15.4184 4.4361 13.8367 6.30066 12.3286C8.16096 10.8239 10.8834 9.44673 14.2918 8.28069C21.1037 5.9503 30.5465 4.5 41 4.5C51.4535 4.5 60.8963 5.9503 67.7082 8.28069C71.1166 9.44673 73.839 10.8239 75.6993 12.3286C77.5639 13.8367 78.5 15.4184 78.5 17Z" stroke="#FC390E"/>
</svg>
